<?xml version="1.0" encoding="UTF-8" ?>
<svg xmlns="http://www.w3.org/2000/svg" xmlns:xlink="http://www.w3.org/1999/xlink" width="3834pt" height="332pt" viewBox="0.00 0.00 3833.71 332.00">
<g id="graph0" class="graph" transform="scale(1 1) rotate(0) translate(4 328)">
<title>%0</title>
<polygon fill="#ffffff" stroke="transparent" points="-4,4 -4,-328 3829.7064,-328 3829.7064,4 -4,4"/>
<!-- [root] azurerm_resource_group.rr&#45;dev&#45;rg (expand) -->
<g id="node1" class="node">
<title>[root] azurerm_resource_group.rr-dev-rg (expand)</title>
<polygon fill="none" stroke="#000000" points="1697.8632,-324 1487.9764,-324 1487.9764,-288 1697.8632,-288 1697.8632,-324"/>
<text text-anchor="middle" x="1592.9198" y="-301.8" font-family="Times,serif" font-size="14.00" fill="#000000">azurerm_resource_group.rr-dev-rg</text>
</g>
<!-- [root] module.network (close) -->
<g id="node21" class="node">
<title>[root] module.network (close)</title>
<ellipse fill="none" stroke="#000000" cx="895.9198" cy="-234" rx="127.2899" ry="18"/>
<text text-anchor="middle" x="895.9198" y="-229.8" font-family="Times,serif" font-size="14.00" fill="#000000">[root] module.network (close)</text>
</g>
<!-- [root] azurerm_resource_group.rr&#45;dev&#45;rg (expand)&#45;&gt;[root] module.network (close) -->
<g id="edge1" class="edge">
<title>[root] azurerm_resource_group.rr-dev-rg (expand)-&gt;[root] module.network (close)</title>
<path fill="none" stroke="#000000" d="M1487.8172,-295.1429C1358.926,-281.8285 1141.3155,-259.3493 1008.9198,-245.6729"/>
<polygon fill="#000000" stroke="#000000" points="1009.0555,-242.1684 998.7488,-244.6222 1008.3362,-249.1313 1009.0555,-242.1684"/>
</g>
<!-- [root] module.storage (close) -->
<g id="node22" class="node">
<title>[root] module.storage (close)</title>
<ellipse fill="none" stroke="#000000" cx="1592.9198" cy="-234" rx="123.2748" ry="18"/>
<text text-anchor="middle" x="1592.9198" y="-229.8" font-family="Times,serif" font-size="14.00" fill="#000000">[root] module.storage (close)</text>
</g>
<!-- [root] azurerm_resource_group.rr&#45;dev&#45;rg (expand)&#45;&gt;[root] module.storage (close) -->
<g id="edge2" class="edge">
<title>[root] azurerm_resource_group.rr-dev-rg (expand)-&gt;[root] module.storage (close)</title>
<path fill="none" stroke="#000000" d="M1592.9198,-287.8314C1592.9198,-280.131 1592.9198,-270.9743 1592.9198,-262.4166"/>
<polygon fill="#000000" stroke="#000000" points="1596.4199,-262.4132 1592.9198,-252.4133 1589.4199,-262.4133 1596.4199,-262.4132"/>
</g>
<!-- [root] module.services (close) -->
<g id="node23" class="node">
<title>[root] module.services (close)</title>
<ellipse fill="none" stroke="#000000" cx="2681.9198" cy="-234" rx="126.7024" ry="18"/>
<text text-anchor="middle" x="2681.9198" y="-229.8" font-family="Times,serif" font-size="14.00" fill="#000000">[root] module.services (close)</text>
</g>
<!-- [root] azurerm_resource_group.rr&#45;dev&#45;rg (expand)&#45;&gt;[root] module.services (close) -->
<g id="edge3" class="edge">
<title>[root] azurerm_resource_group.rr-dev-rg (expand)-&gt;[root] module.services (close)</title>
<path fill="none" stroke="#000000" d="M1698.3272,-299.0309C1900.2288,-285.6821 2340.6305,-256.5646 2556.951,-242.2624"/>
<polygon fill="#000000" stroke="#000000" points="2557.3335,-245.7448 2567.0808,-241.5927 2556.8716,-238.7601 2557.3335,-245.7448"/>
</g>
<!-- [root] module.network.azurerm_application_gateway.rr&#45;dev&#45;agw (expand) -->
<g id="node2" class="node">
<title>[root] module.network.azurerm_application_gateway.rr-dev-agw (expand)</title>
<polygon fill="none" stroke="#000000" points="631.6691,-180 286.1705,-180 286.1705,-144 631.6691,-144 631.6691,-180"/>
<text text-anchor="middle" x="458.9198" y="-157.8" font-family="Times,serif" font-size="14.00" fill="#000000">module.network.azurerm_application_gateway.rr-dev-agw</text>
</g>
<!-- [root] module.network.azurerm_public_ip.rr&#45;dev&#45;agw&#45;ip (expand) -->
<g id="node4" class="node">
<title>[root] module.network.azurerm_public_ip.rr-dev-agw-ip (expand)</title>
<polygon fill="none" stroke="#000000" points="297.7594,-108 .0802,-108 .0802,-72 297.7594,-72 297.7594,-108"/>
<text text-anchor="middle" x="148.9198" y="-85.8" font-family="Times,serif" font-size="14.00" fill="#000000">module.network.azurerm_public_ip.rr-dev-agw-ip</text>
</g>
<!-- [root] module.network.azurerm_application_gateway.rr&#45;dev&#45;agw (expand)&#45;&gt;[root] module.network.azurerm_public_ip.rr&#45;dev&#45;agw&#45;ip (expand) -->
<g id="edge6" class="edge">
<title>[root] module.network.azurerm_application_gateway.rr-dev-agw (expand)-&gt;[root] module.network.azurerm_public_ip.rr-dev-agw-ip (expand)</title>
<path fill="none" stroke="#000000" d="M381.0938,-143.9243C337.0653,-133.6983 281.883,-120.8818 236.3644,-110.3097"/>
<polygon fill="#000000" stroke="#000000" points="237.0414,-106.8739 226.5089,-108.0207 235.4577,-113.6924 237.0414,-106.8739"/>
</g>
<!-- [root] module.network.azurerm_subnet.rr&#45;dev&#45;subnet1 (expand) -->
<g id="node6" class="node">
<title>[root] module.network.azurerm_subnet.rr-dev-subnet1 (expand)</title>
<polygon fill="none" stroke="#000000" points="602.1003,-108 315.7393,-108 315.7393,-72 602.1003,-72 602.1003,-108"/>
<text text-anchor="middle" x="458.9198" y="-85.8" font-family="Times,serif" font-size="14.00" fill="#000000">module.network.azurerm_subnet.rr-dev-subnet1</text>
</g>
<!-- [root] module.network.azurerm_application_gateway.rr&#45;dev&#45;agw (expand)&#45;&gt;[root] module.network.azurerm_subnet.rr&#45;dev&#45;subnet1 (expand) -->
<g id="edge7" class="edge">
<title>[root] module.network.azurerm_application_gateway.rr-dev-agw (expand)-&gt;[root] module.network.azurerm_subnet.rr-dev-subnet1 (expand)</title>
<path fill="none" stroke="#000000" d="M458.9198,-143.8314C458.9198,-136.131 458.9198,-126.9743 458.9198,-118.4166"/>
<polygon fill="#000000" stroke="#000000" points="462.4199,-118.4132 458.9198,-108.4133 455.4199,-118.4133 462.4199,-118.4132"/>
</g>
<!-- [root] module.network.azurerm_lb.rr&#45;dev&#45;lb (expand) -->
<g id="node3" class="node">
<title>[root] module.network.azurerm_lb.rr-dev-lb (expand)</title>
<polygon fill="none" stroke="#000000" points="918.7818,-180 691.0578,-180 691.0578,-144 918.7818,-144 918.7818,-180"/>
<text text-anchor="middle" x="804.9198" y="-157.8" font-family="Times,serif" font-size="14.00" fill="#000000">module.network.azurerm_lb.rr-dev-lb</text>
</g>
<!-- [root] module.network.azurerm_public_ip.rr&#45;dev&#45;lb&#45;ip (expand) -->
<g id="node5" class="node">
<title>[root] module.network.azurerm_public_ip.rr-dev-lb-ip (expand)</title>
<polygon fill="none" stroke="#000000" points="905.8291,-108 620.0105,-108 620.0105,-72 905.8291,-72 905.8291,-108"/>
<text text-anchor="middle" x="762.9198" y="-85.8" font-family="Times,serif" font-size="14.00" fill="#000000">module.network.azurerm_public_ip.rr-dev-lb-ip</text>
</g>
<!-- [root] module.network.azurerm_lb.rr&#45;dev&#45;lb (expand)&#45;&gt;[root] module.network.azurerm_public_ip.rr&#45;dev&#45;lb&#45;ip (expand) -->
<g id="edge9" class="edge">
<title>[root] module.network.azurerm_lb.rr-dev-lb (expand)-&gt;[root] module.network.azurerm_public_ip.rr-dev-lb-ip (expand)</title>
<path fill="none" stroke="#000000" d="M794.3214,-143.8314C789.6321,-135.7925 784.017,-126.1666 778.84,-117.2918"/>
<polygon fill="#000000" stroke="#000000" points="781.7229,-115.2875 773.6609,-108.4133 775.6764,-118.8146 781.7229,-115.2875"/>
</g>
<!-- [root] module.network.azurerm_virtual_network.rr&#45;dev&#45;vnet (expand) -->
<g id="node8" class="node">
<title>[root] module.network.azurerm_virtual_network.rr-dev-vnet (expand)</title>
<polygon fill="none" stroke="#000000" points="920.5254,-36 601.3142,-36 601.3142,0 920.5254,0 920.5254,-36"/>
<text text-anchor="middle" x="760.9198" y="-13.8" font-family="Times,serif" font-size="14.00" fill="#000000">module.network.azurerm_virtual_network.rr-dev-vnet</text>
</g>
<!-- [root] module.network.azurerm_subnet.rr&#45;dev&#45;subnet1 (expand)&#45;&gt;[root] module.network.azurerm_virtual_network.rr&#45;dev&#45;vnet (expand) -->
<g id="edge10" class="edge">
<title>[root] module.network.azurerm_subnet.rr-dev-subnet1 (expand)-&gt;[root] module.network.azurerm_virtual_network.rr-dev-vnet (expand)</title>
<path fill="none" stroke="#000000" d="M534.7373,-71.9243C577.5397,-61.7198 631.1625,-48.9355 675.4528,-38.3762"/>
<polygon fill="#000000" stroke="#000000" points="676.4174,-41.7444 685.333,-36.0207 674.794,-34.9353 676.4174,-41.7444"/>
</g>
<!-- [root] module.network.azurerm_subnet.rr&#45;dev&#45;subnet2 (expand) -->
<g id="node7" class="node">
<title>[root] module.network.azurerm_subnet.rr-dev-subnet2 (expand)</title>
<polygon fill="none" stroke="#000000" points="1210.1003,-108 923.7393,-108 923.7393,-72 1210.1003,-72 1210.1003,-108"/>
<text text-anchor="middle" x="1066.9198" y="-85.8" font-family="Times,serif" font-size="14.00" fill="#000000">module.network.azurerm_subnet.rr-dev-subnet2</text>
</g>
<!-- [root] module.network.azurerm_subnet.rr&#45;dev&#45;subnet2 (expand)&#45;&gt;[root] module.network.azurerm_virtual_network.rr&#45;dev&#45;vnet (expand) -->
<g id="edge11" class="edge">
<title>[root] module.network.azurerm_subnet.rr-dev-subnet2 (expand)-&gt;[root] module.network.azurerm_virtual_network.rr-dev-vnet (expand)</title>
<path fill="none" stroke="#000000" d="M990.0981,-71.9243C946.7287,-61.7198 892.3957,-48.9355 847.5188,-38.3762"/>
<polygon fill="#000000" stroke="#000000" points="848.0435,-34.9042 837.5077,-36.0207 846.4402,-41.7181 848.0435,-34.9042"/>
</g>
<!-- [root] module.services.azurerm_app_service_plan.rr&#45;dev&#45;asp (expand) -->
<g id="node9" class="node">
<title>[root] module.services.azurerm_app_service_plan.rr-dev-asp (expand)</title>
<polygon fill="none" stroke="#000000" points="3610.831,-108 3289.0086,-108 3289.0086,-72 3610.831,-72 3610.831,-108"/>
<text text-anchor="middle" x="3449.9198" y="-85.8" font-family="Times,serif" font-size="14.00" fill="#000000">module.services.azurerm_app_service_plan.rr-dev-asp</text>
</g>
<!-- [root] module.services.azurerm_kubernetes_cluster.rr&#45;dev&#45;aks (expand) -->
<g id="node10" class="node">
<title>[root] module.services.azurerm_kubernetes_cluster.rr-dev-aks (expand)</title>
<polygon fill="none" stroke="#000000" points="2295.3268,-180 1966.5128,-180 1966.5128,-144 2295.3268,-144 2295.3268,-180"/>
<text text-anchor="middle" x="2130.9198" y="-157.8" font-family="Times,serif" font-size="14.00" fill="#000000">module.services.azurerm_kubernetes_cluster.rr-dev-aks</text>
</g>
<!-- [root] module.services.azurerm_servicebus_namespace.rr&#45;dev&#45;bus (expand) -->
<g id="node11" class="node">
<title>[root] module.services.azurerm_servicebus_namespace.rr-dev-bus (expand)</title>
<polygon fill="none" stroke="#000000" points="2859.1495,-108 2506.6901,-108 2506.6901,-72 2859.1495,-72 2859.1495,-108"/>
<text text-anchor="middle" x="2682.9198" y="-85.8" font-family="Times,serif" font-size="14.00" fill="#000000">module.services.azurerm_servicebus_namespace.rr-dev-bus</text>
</g>
<!-- [root] module.services.azurerm_servicebus_queue.rr&#45;dev&#45;bus&#45;queue (expand) -->
<g id="node12" class="node">
<title>[root] module.services.azurerm_servicebus_queue.rr-dev-bus-queue (expand)</title>
<polygon fill="none" stroke="#000000" points="2676.2604,-180 2313.5792,-180 2313.5792,-144 2676.2604,-144 2676.2604,-180"/>
<text text-anchor="middle" x="2494.9198" y="-157.8" font-family="Times,serif" font-size="14.00" fill="#000000">module.services.azurerm_servicebus_queue.rr-dev-bus-queue</text>
</g>
<!-- [root] module.services.azurerm_servicebus_queue.rr&#45;dev&#45;bus&#45;queue (expand)&#45;&gt;[root] module.services.azurerm_servicebus_namespace.rr&#45;dev&#45;bus (expand) -->
<g id="edge17" class="edge">
<title>[root] module.services.azurerm_servicebus_queue.rr-dev-bus-queue (expand)-&gt;[root] module.services.azurerm_servicebus_namespace.rr-dev-bus (expand)</title>
<path fill="none" stroke="#000000" d="M2542.3601,-143.8314C2567.8393,-134.0734 2599.4242,-121.977 2626.1955,-111.7242"/>
<polygon fill="#000000" stroke="#000000" points="2627.7338,-114.883 2635.8206,-108.038 2625.2302,-108.346 2627.7338,-114.883"/>
</g>
<!-- [root] module.services.azurerm_servicebus_topic.rr&#45;dev&#45;bus&#45;topic (expand) -->
<g id="node13" class="node">
<title>[root] module.services.azurerm_servicebus_topic.rr-dev-bus-topic (expand)</title>
<polygon fill="none" stroke="#000000" points="3045.8937,-180 2693.9459,-180 2693.9459,-144 3045.8937,-144 3045.8937,-180"/>
<text text-anchor="middle" x="2869.9198" y="-157.8" font-family="Times,serif" font-size="14.00" fill="#000000">module.services.azurerm_servicebus_topic.rr-dev-bus-topic</text>
</g>
<!-- [root] module.services.azurerm_servicebus_topic.rr&#45;dev&#45;bus&#45;topic (expand)&#45;&gt;[root] module.services.azurerm_servicebus_namespace.rr&#45;dev&#45;bus (expand) -->
<g id="edge18" class="edge">
<title>[root] module.services.azurerm_servicebus_topic.rr-dev-bus-topic (expand)-&gt;[root] module.services.azurerm_servicebus_namespace.rr-dev-bus (expand)</title>
<path fill="none" stroke="#000000" d="M2822.7318,-143.8314C2797.3882,-134.0734 2765.9713,-121.977 2739.3424,-111.7242"/>
<polygon fill="#000000" stroke="#000000" points="2740.3583,-108.3649 2729.7685,-108.038 2737.843,-114.8974 2740.3583,-108.3649"/>
</g>
<!-- [root] module.services.azurerm_windows_function_app.rr&#45;dev&#45;fna&#45;jobs (expand) -->
<g id="node14" class="node">
<title>[root] module.services.azurerm_windows_function_app.rr-dev-fna-jobs (expand)</title>
<polygon fill="none" stroke="#000000" points="3446.003,-180 3063.8366,-180 3063.8366,-144 3446.003,-144 3446.003,-180"/>
<text text-anchor="middle" x="3254.9198" y="-157.8" font-family="Times,serif" font-size="14.00" fill="#000000">module.services.azurerm_windows_function_app.rr-dev-fna-jobs</text>
</g>
<!-- [root] module.services.azurerm_windows_function_app.rr&#45;dev&#45;fna&#45;jobs (expand)&#45;&gt;[root] module.services.azurerm_app_service_plan.rr&#45;dev&#45;asp (expand) -->
<g id="edge19" class="edge">
<title>[root] module.services.azurerm_windows_function_app.rr-dev-fna-jobs (expand)-&gt;[root] module.services.azurerm_app_service_plan.rr-dev-asp (expand)</title>
<path fill="none" stroke="#000000" d="M3303.8748,-143.9243C3330.4166,-134.1243 3363.4021,-121.945 3391.3056,-111.6422"/>
<polygon fill="#000000" stroke="#000000" points="3392.776,-114.8303 3400.9446,-108.0831 3390.3513,-108.2636 3392.776,-114.8303"/>
</g>
<!-- [root] module.services.azurerm_windows_web_app.rr&#45;dev&#45;web&#45;app (expand) -->
<g id="node15" class="node">
<title>[root] module.services.azurerm_windows_web_app.rr-dev-web-app (expand)</title>
<polygon fill="none" stroke="#000000" points="3825.4933,-180 3464.3463,-180 3464.3463,-144 3825.4933,-144 3825.4933,-180"/>
<text text-anchor="middle" x="3644.9198" y="-157.8" font-family="Times,serif" font-size="14.00" fill="#000000">module.services.azurerm_windows_web_app.rr-dev-web-app</text>
</g>
<!-- [root] module.services.azurerm_windows_web_app.rr&#45;dev&#45;web&#45;app (expand)&#45;&gt;[root] module.services.azurerm_app_service_plan.rr&#45;dev&#45;asp (expand) -->
<g id="edge20" class="edge">
<title>[root] module.services.azurerm_windows_web_app.rr-dev-web-app (expand)-&gt;[root] module.services.azurerm_app_service_plan.rr-dev-asp (expand)</title>
<path fill="none" stroke="#000000" d="M3595.9648,-143.9243C3569.423,-134.1243 3536.4375,-121.945 3508.534,-111.6422"/>
<polygon fill="#000000" stroke="#000000" points="3509.4883,-108.2636 3498.895,-108.0831 3507.0636,-114.8303 3509.4883,-108.2636"/>
</g>
<!-- [root] module.storage.azurerm_mssql_database.rr&#45;dev&#45;mssql&#45;db (expand) -->
<g id="node16" class="node">
<title>[root] module.storage.azurerm_mssql_database.rr-dev-mssql-db (expand)</title>
<polygon fill="none" stroke="#000000" points="1581.7482,-180 1242.0914,-180 1242.0914,-144 1581.7482,-144 1581.7482,-180"/>
<text text-anchor="middle" x="1411.9198" y="-157.8" font-family="Times,serif" font-size="14.00" fill="#000000">module.storage.azurerm_mssql_database.rr-dev-mssql-db</text>
</g>
<!-- [root] module.storage.azurerm_mssql_elasticpool.rr&#45;dev&#45;mssql&#45;epool (expand) -->
<g id="node17" class="node">
<title>[root] module.storage.azurerm_mssql_elasticpool.rr-dev-mssql-epool (expand)</title>
<polygon fill="none" stroke="#000000" points="1597.8108,-108 1228.0288,-108 1228.0288,-72 1597.8108,-72 1597.8108,-108"/>
<text text-anchor="middle" x="1412.9198" y="-85.8" font-family="Times,serif" font-size="14.00" fill="#000000">module.storage.azurerm_mssql_elasticpool.rr-dev-mssql-epool</text>
</g>
<!-- [root] module.storage.azurerm_mssql_database.rr&#45;dev&#45;mssql&#45;db (expand)&#45;&gt;[root] module.storage.azurerm_mssql_elasticpool.rr&#45;dev&#45;mssql&#45;epool (expand) -->
<g id="edge23" class="edge">
<title>[root] module.storage.azurerm_mssql_database.rr-dev-mssql-db (expand)-&gt;[root] module.storage.azurerm_mssql_elasticpool.rr-dev-mssql-epool (expand)</title>
<path fill="none" stroke="#000000" d="M1412.1721,-143.8314C1412.2791,-136.131 1412.4063,-126.9743 1412.5251,-118.4166"/>
<polygon fill="#000000" stroke="#000000" points="1416.0247,-118.4609 1412.6641,-108.4133 1409.0254,-118.3637 1416.0247,-118.4609"/>
</g>
<!-- [root] module.storage.azurerm_mssql_server.rr&#45;dev&#45;mssql&#45;server (expand) -->
<g id="node18" class="node">
<title>[root] module.storage.azurerm_mssql_server.rr-dev-mssql-server (expand)</title>
<polygon fill="none" stroke="#000000" points="1585.9446,-36 1239.895,-36 1239.895,0 1585.9446,0 1585.9446,-36"/>
<text text-anchor="middle" x="1412.9198" y="-13.8" font-family="Times,serif" font-size="14.00" fill="#000000">module.storage.azurerm_mssql_server.rr-dev-mssql-server</text>
</g>
<!-- [root] module.storage.azurerm_mssql_elasticpool.rr&#45;dev&#45;mssql&#45;epool (expand)&#45;&gt;[root] module.storage.azurerm_mssql_server.rr&#45;dev&#45;mssql&#45;server (expand) -->
<g id="edge24" class="edge">
<title>[root] module.storage.azurerm_mssql_elasticpool.rr-dev-mssql-epool (expand)-&gt;[root] module.storage.azurerm_mssql_server.rr-dev-mssql-server (expand)</title>
<path fill="none" stroke="#000000" d="M1412.9198,-71.8314C1412.9198,-64.131 1412.9198,-54.9743 1412.9198,-46.4166"/>
<polygon fill="#000000" stroke="#000000" points="1416.4199,-46.4132 1412.9198,-36.4133 1409.4199,-46.4133 1416.4199,-46.4132"/>
</g>
<!-- [root] module.storage.azurerm_storage_account.rr0dev0sa1 (expand) -->
<g id="node19" class="node">
<title>[root] module.storage.azurerm_storage_account.rr0dev0sa1 (expand)</title>
<polygon fill="none" stroke="#000000" points="1931.3506,-108 1616.489,-108 1616.489,-72 1931.3506,-72 1931.3506,-108"/>
<text text-anchor="middle" x="1773.9198" y="-85.8" font-family="Times,serif" font-size="14.00" fill="#000000">module.storage.azurerm_storage_account.rr0dev0sa1</text>
</g>
<!-- [root] module.storage.azurerm_storage_container.rr&#45;dev&#45;sa1&#45;blob (expand) -->
<g id="node20" class="node">
<title>[root] module.storage.azurerm_storage_container.rr-dev-sa1-blob (expand)</title>
<polygon fill="none" stroke="#000000" points="1948.2744,-180 1599.5652,-180 1599.5652,-144 1948.2744,-144 1948.2744,-180"/>
<text text-anchor="middle" x="1773.9198" y="-157.8" font-family="Times,serif" font-size="14.00" fill="#000000">module.storage.azurerm_storage_container.rr-dev-sa1-blob</text>
</g>
<!-- [root] module.storage.azurerm_storage_container.rr&#45;dev&#45;sa1&#45;blob (expand)&#45;&gt;[root] module.storage.azurerm_storage_account.rr0dev0sa1 (expand) -->
<g id="edge25" class="edge">
<title>[root] module.storage.azurerm_storage_container.rr-dev-sa1-blob (expand)-&gt;[root] module.storage.azurerm_storage_account.rr0dev0sa1 (expand)</title>
<path fill="none" stroke="#000000" d="M1773.9198,-143.8314C1773.9198,-136.131 1773.9198,-126.9743 1773.9198,-118.4166"/>
<polygon fill="#000000" stroke="#000000" points="1777.4199,-118.4132 1773.9198,-108.4133 1770.4199,-118.4133 1777.4199,-118.4132"/>
</g>
<!-- [root] module.network (close)&#45;&gt;[root] module.network.azurerm_application_gateway.rr&#45;dev&#45;agw (expand) -->
<g id="edge8" class="edge">
<title>[root] module.network (close)-&gt;[root] module.network.azurerm_application_gateway.rr-dev-agw (expand)</title>
<path fill="none" stroke="#000000" d="M812.9524,-220.3303C746.6189,-209.4012 652.7425,-193.9342 578.3242,-181.673"/>
<polygon fill="#000000" stroke="#000000" points="578.8584,-178.2139 568.4224,-180.0416 577.7203,-185.1208 578.8584,-178.2139"/>
</g>
<!-- [root] module.network (close)&#45;&gt;[root] module.network.azurerm_lb.rr&#45;dev&#45;lb (expand) -->
<g id="edge4" class="edge">
<title>[root] module.network (close)-&gt;[root] module.network.azurerm_lb.rr-dev-lb (expand)</title>
<path fill="none" stroke="#000000" d="M873.4254,-216.2022C862.0272,-207.1839 848.0152,-196.0975 835.6397,-186.3059"/>
<polygon fill="#000000" stroke="#000000" points="837.8014,-183.5532 827.7875,-180.0931 833.458,-189.0428 837.8014,-183.5532"/>
</g>
<!-- [root] module.network (close)&#45;&gt;[root] module.network.azurerm_subnet.rr&#45;dev&#45;subnet2 (expand) -->
<g id="edge5" class="edge">
<title>[root] module.network (close)-&gt;[root] module.network.azurerm_subnet.rr-dev-subnet2 (expand)</title>
<path fill="none" stroke="#000000" d="M917.2313,-216.0535C947.5674,-190.5073 1003.3096,-143.5665 1037.5448,-114.7369"/>
<polygon fill="#000000" stroke="#000000" points="1039.9451,-117.2913 1045.3397,-108.1727 1035.4361,-111.9369 1039.9451,-117.2913"/>
</g>
<!-- [root] module.storage (close)&#45;&gt;[root] module.storage.azurerm_mssql_database.rr&#45;dev&#45;mssql&#45;db (expand) -->
<g id="edge21" class="edge">
<title>[root] module.storage (close)-&gt;[root] module.storage.azurerm_mssql_database.rr-dev-mssql-db (expand)</title>
<path fill="none" stroke="#000000" d="M1550.0253,-216.937C1525.1662,-207.0483 1493.6077,-194.4946 1466.9352,-183.8846"/>
<polygon fill="#000000" stroke="#000000" points="1467.9365,-180.5162 1457.351,-180.0721 1465.3491,-187.0205 1467.9365,-180.5162"/>
</g>
<!-- [root] module.storage (close)&#45;&gt;[root] module.storage.azurerm_storage_container.rr&#45;dev&#45;sa1&#45;blob (expand) -->
<g id="edge22" class="edge">
<title>[root] module.storage (close)-&gt;[root] module.storage.azurerm_storage_container.rr-dev-sa1-blob (expand)</title>
<path fill="none" stroke="#000000" d="M1635.8143,-216.937C1660.6734,-207.0483 1692.2319,-194.4946 1718.9044,-183.8846"/>
<polygon fill="#000000" stroke="#000000" points="1720.4905,-187.0205 1728.4886,-180.0721 1717.9031,-180.5162 1720.4905,-187.0205"/>
</g>
<!-- [root] module.services (close)&#45;&gt;[root] module.services.azurerm_kubernetes_cluster.rr&#45;dev&#45;aks (expand) -->
<g id="edge12" class="edge">
<title>[root] module.services (close)-&gt;[root] module.services.azurerm_kubernetes_cluster.rr-dev-aks (expand)</title>
<path fill="none" stroke="#000000" d="M2588.4502,-221.7862C2503.7018,-210.712 2377.3568,-194.2023 2278.8954,-181.3362"/>
<polygon fill="#000000" stroke="#000000" points="2279.2216,-177.8491 2268.8523,-180.0239 2278.3145,-184.7901 2279.2216,-177.8491"/>
</g>
<!-- [root] module.services (close)&#45;&gt;[root] module.services.azurerm_servicebus_queue.rr&#45;dev&#45;bus&#45;queue (expand) -->
<g id="edge13" class="edge">
<title>[root] module.services (close)-&gt;[root] module.services.azurerm_servicebus_queue.rr-dev-bus-queue (expand)</title>
<path fill="none" stroke="#000000" d="M2637.6034,-216.937C2611.8076,-207.0049 2579.0294,-194.3845 2551.3966,-183.7451"/>
<polygon fill="#000000" stroke="#000000" points="2552.4468,-180.399 2541.857,-180.0721 2549.9316,-186.9315 2552.4468,-180.399"/>
</g>
<!-- [root] module.services (close)&#45;&gt;[root] module.services.azurerm_servicebus_topic.rr&#45;dev&#45;bus&#45;topic (expand) -->
<g id="edge14" class="edge">
<title>[root] module.services (close)-&gt;[root] module.services.azurerm_servicebus_topic.rr-dev-bus-topic (expand)</title>
<path fill="none" stroke="#000000" d="M2725.9974,-217.1192C2752.0157,-207.1548 2785.2225,-194.4373 2813.1817,-183.7295"/>
<polygon fill="#000000" stroke="#000000" points="2814.7452,-186.8787 2822.832,-180.0336 2812.2416,-180.3417 2814.7452,-186.8787"/>
</g>
<!-- [root] module.services (close)&#45;&gt;[root] module.services.azurerm_windows_function_app.rr&#45;dev&#45;fna&#45;jobs (expand) -->
<g id="edge15" class="edge">
<title>[root] module.services (close)-&gt;[root] module.services.azurerm_windows_function_app.rr-dev-fna-jobs (expand)</title>
<path fill="none" stroke="#000000" d="M2776.8605,-222.0703C2865.0454,-210.9894 2997.9164,-194.2936 3101.2138,-181.3138"/>
<polygon fill="#000000" stroke="#000000" points="3101.9464,-184.7494 3111.432,-180.0299 3101.0736,-177.804 3101.9464,-184.7494"/>
</g>
<!-- [root] module.services (close)&#45;&gt;[root] module.services.azurerm_windows_web_app.rr&#45;dev&#45;web&#45;app (expand) -->
<g id="edge16" class="edge">
<title>[root] module.services (close)-&gt;[root] module.services.azurerm_windows_web_app.rr-dev-web-app (expand)</title>
<path fill="none" stroke="#000000" d="M2798.2133,-226.7746C2947.3959,-217.3025 3214.4359,-199.6633 3453.86,-180.0759"/>
<polygon fill="#000000" stroke="#000000" points="3454.4793,-183.5369 3464.1595,-179.2307 3453.9067,-176.5604 3454.4793,-183.5369"/>
</g>
</g>
</svg>